<svg width="593" height="149" viewBox="0 0 593 149" fill="none" xmlns="http://www.w3.org/2000/svg">
<path d="M64.8751 99.7219L64.0601 116.41L0 121.81V95.7952L21.0273 97.1859L19.1528 27.3233L0 28.305L2.85255 0L57.703 2.53599L107.989 102.012V25.4418L90.6295 25.9326V0L152 4.99018L150.859 23.8056L132.358 24.4601L121.355 121.81L105.3 125L42.8697 27.6505L36.5126 98.0039L64.8751 99.7219Z" fill="#2962FF"/>
<path d="M175.356 124C167.79 124 161.258 122.85 155.76 120.551C150.317 118.251 145.826 115.13 142.288 111.188C138.804 107.245 136.219 102.646 134.531 97.3899C132.844 92.1336 132 86.5487 132 80.6354C132 72.6962 133.361 65.7425 136.083 59.7744C138.859 53.8063 142.587 48.8511 147.269 44.9088C152.004 40.9119 157.475 37.9278 163.68 35.9567C169.886 33.9856 176.445 33 183.358 33C191.088 33 197.593 34.1498 202.873 36.4495C208.207 38.7491 212.507 41.8427 215.773 45.7301C219.04 49.5629 221.38 53.9979 222.795 59.0352C224.265 64.0178 225 69.2467 225 74.722C225 82.1685 223.802 88.9305 221.407 95.0081C219.067 101.086 215.719 106.287 211.364 110.613C207.064 114.884 201.838 118.169 195.687 120.468C189.591 122.823 182.814 124 175.356 124ZM178.867 44.1697C175.982 44.1697 173.451 44.7993 171.274 46.0587C169.151 47.2632 167.3 48.8785 165.722 50.9043C164.198 52.8755 162.918 55.1203 161.884 57.639C160.85 60.1576 160.033 62.731 159.435 65.3592C158.836 67.9326 158.4 70.4513 158.128 72.9152C157.91 75.3791 157.802 77.5144 157.802 79.3213C157.802 81.2924 157.938 83.5099 158.21 85.9738C158.482 88.383 158.945 90.8195 159.598 93.2834C160.251 95.7473 161.122 98.1564 162.211 100.511C163.299 102.865 164.66 104.946 166.293 106.753C167.926 108.56 169.831 110.011 172.009 111.106C174.241 112.201 176.799 112.748 179.684 112.748C182.623 112.748 185.127 112.201 187.196 111.106C189.319 110.011 191.088 108.56 192.503 106.753C193.973 104.946 195.143 102.893 196.014 100.593C196.885 98.2933 197.538 95.9663 197.974 93.6119C198.464 91.2028 198.79 88.8758 198.953 86.6309C199.117 84.386 199.198 82.3875 199.198 80.6354C199.198 78.281 199.062 75.735 198.79 72.9973C198.572 70.2596 198.164 67.5493 197.565 64.8664C197.021 62.1288 196.232 59.528 195.198 57.0641C194.218 54.5454 192.966 52.3553 191.442 50.4937C189.972 48.5773 188.176 47.0442 186.053 45.8944C183.984 44.7446 181.589 44.1697 178.867 44.1697Z" fill="#FF1744"/>
<path d="M271.823 123C264.175 123 257.573 121.85 252.016 119.551C246.514 117.251 241.975 114.13 238.399 110.188C234.877 106.245 232.264 101.646 230.558 96.3899C228.853 91.1336 228 85.5487 228 79.6354C228 71.6962 229.375 64.7425 232.126 58.7744C234.932 52.8063 238.701 47.8511 243.433 43.9088C248.219 39.9119 253.749 36.9278 260.021 34.9567C266.293 32.9856 272.923 32 279.91 32C287.723 32 294.298 33.1498 299.635 35.4495C305.027 37.7491 309.373 40.8427 312.674 44.7301C315.975 48.5629 318.341 52.9979 319.772 58.0352C321.257 63.0178 322 68.2467 322 73.722C322 81.1685 320.79 87.9305 318.369 94.0081C316.003 100.086 312.619 105.287 308.218 109.613C303.871 113.884 298.589 117.169 292.372 119.468C286.21 121.823 279.36 123 271.823 123ZM275.371 43.1697C272.455 43.1697 269.897 43.7993 267.696 45.0587C265.55 46.2632 263.68 47.8785 262.084 49.9043C260.544 51.8755 259.251 54.1203 258.205 56.639C257.16 59.1576 256.335 61.731 255.73 64.3592C255.124 66.9326 254.684 69.4513 254.409 71.9152C254.189 74.3791 254.079 76.5144 254.079 78.3213C254.079 80.2924 254.217 82.5099 254.492 84.9738C254.767 87.383 255.234 89.8195 255.895 92.2834C256.555 94.7473 257.435 97.1564 258.536 99.5108C259.636 101.865 261.011 103.946 262.662 105.753C264.313 107.56 266.238 109.011 268.439 110.106C270.695 111.201 273.281 111.748 276.197 111.748C279.168 111.748 281.699 111.201 283.789 110.106C285.935 109.011 287.723 107.56 289.154 105.753C290.639 103.946 291.822 101.893 292.702 99.593C293.583 97.2933 294.243 94.9663 294.683 92.6119C295.178 90.2028 295.508 87.8758 295.673 85.6309C295.838 83.386 295.921 81.3875 295.921 79.6354C295.921 77.281 295.783 74.735 295.508 71.9973C295.288 69.2596 294.876 66.5493 294.27 63.8664C293.72 61.1288 292.922 58.528 291.877 56.0641C290.887 53.5454 289.621 51.3553 288.081 49.4937C286.595 47.5773 284.78 46.0442 282.634 44.8944C280.543 43.7446 278.122 43.1697 275.371 43.1697Z" fill="#FFD600"/>
<path d="M433 47.4215L418.512 49.3828C418.512 54.1771 418.567 58.8896 418.676 63.5204C418.839 68.1513 418.976 72.7548 419.085 77.3312C419.249 81.9075 419.358 86.5111 419.412 91.1419C419.467 95.7183 419.412 100.376 419.249 105.116C418.976 112.09 417.421 118.3 414.583 123.748C411.745 129.196 407.926 133.773 403.124 137.477C398.321 141.237 392.701 144.097 386.262 146.058C379.877 148.019 372.974 149 365.553 149C360.096 149 354.776 148.183 349.592 146.548C344.462 144.968 339.633 142.871 335.103 140.256L342.307 124.402C343.998 126.037 345.826 127.562 347.791 128.978C349.81 130.449 351.883 131.703 354.012 132.738C356.194 133.827 358.432 134.672 360.724 135.271C363.015 135.925 365.307 136.252 367.599 136.252C370.873 136.252 373.766 135.734 376.276 134.699C378.84 133.718 381.078 132.275 382.988 130.368C384.898 128.515 386.507 126.282 387.817 123.667C389.181 121.106 390.273 118.219 391.091 115.004C387.544 116.748 383.806 118.11 379.877 119.09C375.948 120.071 372.019 120.561 368.09 120.561C361.542 120.561 355.731 119.444 350.656 117.211C345.581 114.977 341.27 111.953 337.723 108.14C334.23 104.272 331.556 99.8043 329.701 94.7376C327.9 89.6165 327 84.2229 327 78.557C327 71.8014 328.037 65.7541 330.11 60.4151C332.239 55.076 335.294 50.5541 339.278 46.8495C343.316 43.1448 348.227 40.3118 354.012 38.3505C359.85 36.3348 366.453 35.3269 373.82 35.3269C377.858 35.3269 381.76 36.0624 385.525 37.5333C389.29 39.0043 392.701 40.6659 395.757 42.5183C395.811 41.4287 395.839 40.4208 395.839 39.4946C395.893 38.514 395.948 37.6968 396.002 37.043C396.057 36.2803 396.084 35.5993 396.084 35L433 36.7161V47.4215ZM393.547 96.7806C393.71 93.8932 393.874 90.7061 394.038 87.2194C394.202 83.6781 394.365 80.0824 394.529 76.4323C394.693 72.7276 394.856 69.0229 395.02 65.3183C395.184 61.6136 395.32 58.0996 395.429 54.7763C392.319 52.7606 388.99 51.0444 385.443 49.628C381.896 48.157 378.513 47.4215 375.293 47.4215C372.783 47.4215 370.546 47.9391 368.581 48.9742C366.672 49.9548 364.98 51.2896 363.507 52.9785C362.033 54.6674 360.778 56.6014 359.741 58.7806C358.705 60.9054 357.859 63.1118 357.204 65.4C356.549 67.6337 356.058 69.8674 355.731 72.1011C355.458 74.2803 355.321 76.2416 355.321 77.9849C355.321 79.8373 355.458 81.9075 355.731 84.1957C356.003 86.4294 356.44 88.7176 357.04 91.0602C357.695 93.3484 358.541 95.5821 359.578 97.7613C360.614 99.886 361.897 101.793 363.425 103.482C364.953 105.171 366.726 106.533 368.745 107.568C370.819 108.603 373.165 109.12 375.785 109.12C377.312 109.12 378.84 108.875 380.368 108.385C381.951 107.84 383.479 107.159 384.952 106.342C386.48 105.47 387.926 104.462 389.29 103.318C390.709 102.174 392.073 100.948 393.383 99.6409C393.383 99.205 393.383 98.7419 393.383 98.2516C393.383 97.7613 393.438 97.271 393.547 96.7806Z" fill="#2962FF"/>
<path d="M493 99.9494L490.407 121L429.97 119.123L429.16 104.437L449.576 103.05L449.414 17.2158L426 16.3999V1.63183L476.959 0L468.938 101.581L493 99.9494Z" fill="#00C853"/>
<path d="M592.983 69.7157C593.134 75.4424 592.261 80.8303 590.362 85.8796C588.493 90.8582 585.922 95.4241 582.648 99.577C579.353 103.68 575.557 107.288 571.26 110.399C566.962 113.511 562.501 116.018 557.876 117.92C551.44 120.567 545.292 121.925 539.431 121.996C533.571 122.067 528.172 121.129 523.237 119.183C518.301 117.236 513.88 114.405 509.974 110.69C506.097 106.905 502.936 102.504 500.489 97.4872C497.219 89.6513 495.736 82.4259 496.038 75.8108C496.371 69.1252 498.07 63.1052 501.137 57.7509C504.255 52.3759 508.522 47.639 513.939 43.5404C519.335 39.3918 525.452 35.9117 532.29 33.1001C534.804 32.0664 537.466 31.1764 540.277 30.43C543.137 29.663 546.037 29.2015 548.976 29.0455C551.915 28.8895 554.874 29.1346 557.853 29.7807C560.862 30.3562 563.817 31.5093 566.719 33.2399C569.65 34.8998 572.487 37.183 575.231 40.0892C577.976 42.9955 580.578 46.691 583.038 51.1758L525.714 87.6408C527.553 90.9192 529.663 93.9987 532.043 96.8792C534.473 99.7392 537.1 102.08 539.921 103.902C542.722 105.674 545.717 106.781 548.906 107.224C552.125 107.596 555.498 106.999 559.026 105.431C562.71 103.39 565.649 100.836 567.845 97.7699C568.769 96.4545 569.57 94.9851 570.247 93.3616C570.903 91.6883 571.315 89.8524 571.483 87.8539C571.65 85.8554 571.477 83.6755 570.963 81.314C570.449 78.9526 569.472 76.4011 568.034 73.6597L592.983 69.7157ZM554.342 57.3623C553.162 55.0992 551.881 53.2286 550.498 51.7505C549.116 50.2724 547.661 49.1163 546.135 48.282C544.659 47.4271 543.151 46.8484 541.612 46.546C540.101 46.173 538.638 45.9851 537.224 45.9822C533.929 45.992 530.543 46.7704 527.065 48.3173C523.914 50.0811 521.619 52.1354 520.183 54.4804C518.725 56.7754 517.877 59.2587 517.637 61.9302C517.426 64.5311 517.672 67.2369 518.373 70.0475C519.075 72.8582 519.998 75.636 521.144 78.381L554.342 57.3623Z" fill="#FF1744"/>
</svg>
